<?xml version="1.0" standalone="no"?>
<!DOCTYPE svg PUBLIC "-//W3C//DTD SVG 20010904//EN"
 "http://www.w3.org/TR/2001/REC-SVG-20010904/DTD/svg10.dtd">
<svg version="1.0" xmlns="http://www.w3.org/2000/svg"
 width="152.000000pt" height="152.000000pt" viewBox="0 0 152.000000 152.000000"
 preserveAspectRatio="xMidYMid meet">
<metadata>
Created by potrace 1.14, written by Peter Selinger 2001-2017
</metadata>
<g transform="translate(0.000000,152.000000) scale(0.100000,-0.100000)"
fill="#000000" stroke="none">
<path d="M825 1260 c-33 -11 -77 -30 -99 -43 -39 -24 -39 -24 -86 -6 -240 91
-524 -53 -610 -310 -29 -86 -29 -211 -1 -301 63 -202 251 -340 464 -340 58 0
107 11 184 41 l52 21 64 -31 c88 -42 155 -54 263 -49 80 4 103 10 166 40 181
87 289 256 289 455 1 86 -18 168 -53 236 -10 21 -21 37 -23 35 -1 -1 5 -34 15
-73 70 -267 -71 -527 -320 -591 -81 -21 -182 -14 -261 16 l-57 22 48 63 c169
223 130 526 -89 697 -30 23 -33 29 -21 43 7 9 50 34 94 55 87 43 79 51 -19 20z"/>
<path d="M1156 1175 c-29 -19 -41 -23 -56 -15 -10 5 -35 10 -54 10 l-36 0 0
-50 c0 -29 7 -65 17 -83 11 -21 16 -49 14 -83 -5 -95 47 -144 140 -131 30 4
42 1 56 -15 22 -25 73 -48 107 -48 21 0 26 6 31 33 4 19 2 53 -5 76 -10 37 -9
45 10 68 11 14 20 35 20 47 0 27 -45 72 -87 86 -20 7 -36 22 -44 42 -14 34
-56 88 -68 88 -5 0 -25 -11 -45 -25z m43 -8 c-2 -1 -15 -11 -29 -22 l-25 -20
19 23 c11 12 24 22 29 22 6 0 8 -1 6 -3z m121 -113 c0 -2 -9 -4 -20 -4 -11 0
-20 4 -20 9 0 5 9 7 20 4 11 -3 20 -7 20 -9z"/>
</g>
</svg>
